<?xml version="1.0" encoding="UTF-8" standalone="no"?>
<!DOCTYPE svg PUBLIC "-//W3C//DTD SVG 1.1//EN"
 "http://www.w3.org/Graphics/SVG/1.1/DTD/svg11.dtd">
<!-- Generated by graphviz version 2.43.0 (0)
 -->
<!-- Title: snakemake_dag Pages: 1 -->
<svg width="229pt" height="260pt"
 viewBox="0.00 0.00 228.50 260.00" xmlns="http://www.w3.org/2000/svg" xmlns:xlink="http://www.w3.org/1999/xlink">
<g id="graph0" class="graph" transform="scale(1 1) rotate(0) translate(4 256)">
<title>snakemake_dag</title>
<polygon fill="white" stroke="transparent" points="-4,4 -4,-256 224.5,-256 224.5,4 -4,4"/>
<!-- 1 -->
<g id="node1" class="node">
<title>1</title>
<path fill="none" stroke="#97d856" stroke-width="2" d="M87,-36C87,-36 57,-36 57,-36 51,-36 45,-30 45,-24 45,-24 45,-12 45,-12 45,-6 51,0 57,0 57,0 87,0 87,0 93,0 99,-6 99,-12 99,-12 99,-24 99,-24 99,-30 93,-36 87,-36"/>
<text text-anchor="middle" x="72" y="-15.5" font-family="sans" font-size="10.00">mask</text>
</g>
<!-- 2 -->
<g id="node2" class="node">
<title>2</title>
<path fill="none" stroke="#56d89a" stroke-width="2" d="M132,-108C132,-108 102,-108 102,-108 96,-108 90,-102 90,-96 90,-96 90,-84 90,-84 90,-78 96,-72 102,-72 102,-72 132,-72 132,-72 138,-72 144,-78 144,-84 144,-84 144,-96 144,-96 144,-102 138,-108 132,-108"/>
<text text-anchor="middle" x="117" y="-87.5" font-family="sans" font-size="10.00">trim</text>
</g>
<!-- 2&#45;&gt;1 -->
<g id="edge1" class="edge">
<title>2&#45;&gt;1</title>
<path fill="none" stroke="grey" stroke-width="2" d="M105.88,-71.7C100.64,-63.56 94.3,-53.69 88.52,-44.7"/>
<polygon fill="grey" stroke="grey" stroke-width="2" points="91.35,-42.62 83,-36.1 85.46,-46.41 91.35,-42.62"/>
</g>
<!-- 6 -->
<g id="node6" class="node">
<title>6</title>
<path fill="none" stroke="#d89556" stroke-width="2" d="M197,-36C197,-36 129,-36 129,-36 123,-36 117,-30 117,-24 117,-24 117,-12 117,-12 117,-6 123,0 129,0 129,0 197,0 197,0 203,0 209,-6 209,-12 209,-12 209,-24 209,-24 209,-30 203,-36 197,-36"/>
<text text-anchor="middle" x="163" y="-15.5" font-family="sans" font-size="10.00">mask_unpaired</text>
</g>
<!-- 2&#45;&gt;6 -->
<g id="edge5" class="edge">
<title>2&#45;&gt;6</title>
<path fill="none" stroke="grey" stroke-width="2" d="M128.37,-71.7C133.72,-63.56 140.2,-53.69 146.11,-44.7"/>
<polygon fill="grey" stroke="grey" stroke-width="2" points="149.19,-46.38 151.76,-36.1 143.34,-42.54 149.19,-46.38"/>
</g>
<!-- 3 -->
<g id="node3" class="node">
<title>3</title>
<path fill="none" stroke="#d6d856" stroke-width="2" d="M83,-180C83,-180 53,-180 53,-180 47,-180 41,-174 41,-168 41,-168 41,-156 41,-156 41,-150 47,-144 53,-144 53,-144 83,-144 83,-144 89,-144 95,-150 95,-156 95,-156 95,-168 95,-168 95,-174 89,-180 83,-180"/>
<text text-anchor="middle" x="68" y="-159.5" font-family="sans" font-size="10.00">repair</text>
</g>
<!-- 3&#45;&gt;2 -->
<g id="edge2" class="edge">
<title>3&#45;&gt;2</title>
<path fill="none" stroke="grey" stroke-width="2" d="M80.11,-143.7C85.87,-135.47 92.86,-125.48 99.21,-116.42"/>
<polygon fill="grey" stroke="grey" stroke-width="2" points="102.16,-118.3 105.03,-108.1 96.42,-114.29 102.16,-118.3"/>
</g>
<!-- 4 -->
<g id="node4" class="node">
<title>4</title>
<path fill="none" stroke="#569ad8" stroke-width="2" d="M124,-252C124,-252 12,-252 12,-252 6,-252 0,-246 0,-240 0,-240 0,-228 0,-228 0,-222 6,-216 12,-216 12,-216 124,-216 124,-216 130,-216 136,-222 136,-228 136,-228 136,-240 136,-240 136,-246 130,-252 124,-252"/>
<text text-anchor="middle" x="68" y="-231.5" font-family="sans" font-size="10.00">check_sample_barcodes</text>
</g>
<!-- 4&#45;&gt;3 -->
<g id="edge4" class="edge">
<title>4&#45;&gt;3</title>
<path fill="none" stroke="grey" stroke-width="2" d="M68,-215.7C68,-207.98 68,-198.71 68,-190.11"/>
<polygon fill="grey" stroke="grey" stroke-width="2" points="71.5,-190.1 68,-180.1 64.5,-190.1 71.5,-190.1"/>
</g>
<!-- 5 -->
<g id="node5" class="node">
<title>5</title>
<path fill="none" stroke="#59d856" stroke-width="2" d="M208.5,-180C208.5,-180 125.5,-180 125.5,-180 119.5,-180 113.5,-174 113.5,-168 113.5,-168 113.5,-156 113.5,-156 113.5,-150 119.5,-144 125.5,-144 125.5,-144 208.5,-144 208.5,-144 214.5,-144 220.5,-150 220.5,-156 220.5,-156 220.5,-168 220.5,-168 220.5,-174 214.5,-180 208.5,-180"/>
<text text-anchor="middle" x="167" y="-159.5" font-family="sans" font-size="10.00">combine_adaptors</text>
</g>
<!-- 5&#45;&gt;2 -->
<g id="edge3" class="edge">
<title>5&#45;&gt;2</title>
<path fill="none" stroke="grey" stroke-width="2" d="M154.64,-143.7C148.77,-135.47 141.63,-125.48 135.16,-116.42"/>
<polygon fill="grey" stroke="grey" stroke-width="2" points="137.88,-114.21 129.22,-108.1 132.18,-118.28 137.88,-114.21"/>
</g>
</g>
</svg>
