<?xml version="1.0" encoding="UTF-8" standalone="no"?>
<!DOCTYPE svg PUBLIC "-//W3C//DTD SVG 1.1//EN"
 "http://www.w3.org/Graphics/SVG/1.1/DTD/svg11.dtd">
<!-- Generated by graphviz version 2.43.0 (0)
 -->
<!-- Title: snakemake_dag Pages: 1 -->
<svg width="377pt" height="620pt"
 viewBox="0.00 0.00 377.00 620.00" xmlns="http://www.w3.org/2000/svg" xmlns:xlink="http://www.w3.org/1999/xlink">
<g id="graph0" class="graph" transform="scale(1 1) rotate(0) translate(4 616)">
<title>snakemake_dag</title>
<polygon fill="white" stroke="transparent" points="-4,4 -4,-616 373,-616 373,4 -4,4"/>
<!-- 1 -->
<g id="node1" class="node">
<title>1</title>
<path fill="none" stroke="#56d8c9" stroke-width="2" d="M228,-396C228,-396 198,-396 198,-396 192,-396 186,-390 186,-384 186,-384 186,-372 186,-372 186,-366 192,-360 198,-360 198,-360 228,-360 228,-360 234,-360 240,-366 240,-372 240,-372 240,-384 240,-384 240,-390 234,-396 228,-396"/>
<text text-anchor="middle" x="213" y="-375.5" font-family="sans" font-size="10.00">mask</text>
</g>
<!-- 7 -->
<g id="node7" class="node">
<title>7</title>
<path fill="none" stroke="#56d8a2" stroke-width="2" d="M311.5,-324C311.5,-324 236.5,-324 236.5,-324 230.5,-324 224.5,-318 224.5,-312 224.5,-312 224.5,-300 224.5,-300 224.5,-294 230.5,-288 236.5,-288 236.5,-288 311.5,-288 311.5,-288 317.5,-288 323.5,-294 323.5,-300 323.5,-300 323.5,-312 323.5,-312 323.5,-318 317.5,-324 311.5,-324"/>
<text text-anchor="middle" x="274" y="-303.5" font-family="sans" font-size="10.00">count_duplicates</text>
</g>
<!-- 1&#45;&gt;7 -->
<g id="edge7" class="edge">
<title>1&#45;&gt;7</title>
<path fill="none" stroke="grey" stroke-width="2" d="M228.08,-359.7C235.39,-351.3 244.31,-341.07 252.34,-331.86"/>
<polygon fill="grey" stroke="grey" stroke-width="2" points="255.16,-333.94 259.09,-324.1 249.89,-329.34 255.16,-333.94"/>
</g>
<!-- 10 -->
<g id="node10" class="node">
<title>10</title>
<path fill="none" stroke="#56c9d8" stroke-width="2" d="M248,-252C248,-252 208,-252 208,-252 202,-252 196,-246 196,-240 196,-240 196,-228 196,-228 196,-222 202,-216 208,-216 208,-216 248,-216 248,-216 254,-216 260,-222 260,-228 260,-228 260,-240 260,-240 260,-246 254,-252 248,-252"/>
<text text-anchor="middle" x="228" y="-231.5" font-family="sans" font-size="10.00">grep_logs</text>
</g>
<!-- 1&#45;&gt;10 -->
<g id="edge10" class="edge">
<title>1&#45;&gt;10</title>
<path fill="none" stroke="grey" stroke-width="2" d="M212.62,-359.86C212.45,-341.88 212.8,-312.84 216,-288 217.1,-279.45 218.95,-270.25 220.86,-261.95"/>
<polygon fill="grey" stroke="grey" stroke-width="2" points="224.31,-262.58 223.28,-252.04 217.51,-260.93 224.31,-262.58"/>
</g>
<!-- 2 -->
<g id="node2" class="node">
<title>2</title>
<path fill="none" stroke="#78d856" stroke-width="2" d="M173,-468C173,-468 143,-468 143,-468 137,-468 131,-462 131,-456 131,-456 131,-444 131,-444 131,-438 137,-432 143,-432 143,-432 173,-432 173,-432 179,-432 185,-438 185,-444 185,-444 185,-456 185,-456 185,-462 179,-468 173,-468"/>
<text text-anchor="middle" x="158" y="-447.5" font-family="sans" font-size="10.00">trim</text>
</g>
<!-- 2&#45;&gt;1 -->
<g id="edge1" class="edge">
<title>2&#45;&gt;1</title>
<path fill="none" stroke="grey" stroke-width="2" d="M171.6,-431.7C178.12,-423.39 186.07,-413.28 193.25,-404.14"/>
<polygon fill="grey" stroke="grey" stroke-width="2" points="196.13,-406.13 199.56,-396.1 190.63,-401.81 196.13,-406.13"/>
</g>
<!-- 6 -->
<g id="node6" class="node">
<title>6</title>
<path fill="none" stroke="#d8a456" stroke-width="2" d="M80,-396C80,-396 12,-396 12,-396 6,-396 0,-390 0,-384 0,-384 0,-372 0,-372 0,-366 6,-360 12,-360 12,-360 80,-360 80,-360 86,-360 92,-366 92,-372 92,-372 92,-384 92,-384 92,-390 86,-396 80,-396"/>
<text text-anchor="middle" x="46" y="-375.5" font-family="sans" font-size="10.00">mask_unpaired</text>
</g>
<!-- 2&#45;&gt;6 -->
<g id="edge5" class="edge">
<title>2&#45;&gt;6</title>
<path fill="none" stroke="grey" stroke-width="2" d="M130.89,-432.05C116.14,-422.84 97.71,-411.32 81.79,-401.37"/>
<polygon fill="grey" stroke="grey" stroke-width="2" points="83.59,-398.36 73.25,-396.03 79.88,-404.3 83.59,-398.36"/>
</g>
<!-- 2&#45;&gt;10 -->
<g id="edge11" class="edge">
<title>2&#45;&gt;10</title>
<path fill="none" stroke="grey" stroke-width="2" d="M160.76,-431.71C163.86,-413.6 169.46,-384.46 177,-360 187.78,-325 204.4,-286.16 215.72,-261.2"/>
<polygon fill="grey" stroke="grey" stroke-width="2" points="218.93,-262.59 219.92,-252.04 212.57,-259.67 218.93,-262.59"/>
</g>
<!-- 11 -->
<g id="node11" class="node">
<title>11</title>
<path fill="none" stroke="#d87d56" stroke-width="2" d="M161.5,-36C161.5,-36 78.5,-36 78.5,-36 72.5,-36 66.5,-30 66.5,-24 66.5,-24 66.5,-12 66.5,-12 66.5,-6 72.5,0 78.5,0 78.5,0 161.5,0 161.5,0 167.5,0 173.5,-6 173.5,-12 173.5,-12 173.5,-24 173.5,-24 173.5,-30 167.5,-36 161.5,-36"/>
<text text-anchor="middle" x="120" y="-15.5" font-family="sans" font-size="10.00">plot_adaptor_stats</text>
</g>
<!-- 2&#45;&gt;11 -->
<g id="edge14" class="edge">
<title>2&#45;&gt;11</title>
<path fill="none" stroke="grey" stroke-width="2" d="M150.31,-431.91C139.21,-405.62 120,-353.45 120,-307 120,-307 120,-307 120,-161 120,-121 120,-74.65 120,-46.08"/>
<polygon fill="grey" stroke="grey" stroke-width="2" points="123.5,-46.05 120,-36.05 116.5,-46.05 123.5,-46.05"/>
</g>
<!-- 3 -->
<g id="node3" class="node">
<title>3</title>
<path fill="none" stroke="#59d856" stroke-width="2" d="M344,-540C344,-540 314,-540 314,-540 308,-540 302,-534 302,-528 302,-528 302,-516 302,-516 302,-510 308,-504 314,-504 314,-504 344,-504 344,-504 350,-504 356,-510 356,-516 356,-516 356,-528 356,-528 356,-534 350,-540 344,-540"/>
<text text-anchor="middle" x="329" y="-519.5" font-family="sans" font-size="10.00">repair</text>
</g>
<!-- 3&#45;&gt;2 -->
<g id="edge2" class="edge">
<title>3&#45;&gt;2</title>
<path fill="none" stroke="grey" stroke-width="2" d="M301.9,-509.91C272.97,-498.06 226.95,-479.22 194.76,-466.05"/>
<polygon fill="grey" stroke="grey" stroke-width="2" points="195.83,-462.7 185.25,-462.16 193.18,-469.18 195.83,-462.7"/>
</g>
<!-- 3&#45;&gt;10 -->
<g id="edge13" class="edge">
<title>3&#45;&gt;10</title>
<path fill="none" stroke="grey" stroke-width="2" d="M335.08,-503.87C348.44,-462.95 375.94,-357.77 333,-288 319.19,-265.56 292.61,-252.27 269.66,-244.61"/>
<polygon fill="grey" stroke="grey" stroke-width="2" points="270.68,-241.27 260.09,-241.67 268.62,-247.96 270.68,-241.27"/>
</g>
<!-- 4 -->
<g id="node4" class="node">
<title>4</title>
<path fill="none" stroke="#567bd8" stroke-width="2" d="M357,-612C357,-612 245,-612 245,-612 239,-612 233,-606 233,-600 233,-600 233,-588 233,-588 233,-582 239,-576 245,-576 245,-576 357,-576 357,-576 363,-576 369,-582 369,-588 369,-588 369,-600 369,-600 369,-606 363,-612 357,-612"/>
<text text-anchor="middle" x="301" y="-591.5" font-family="sans" font-size="10.00">check_sample_barcodes</text>
</g>
<!-- 4&#45;&gt;3 -->
<g id="edge4" class="edge">
<title>4&#45;&gt;3</title>
<path fill="none" stroke="grey" stroke-width="2" d="M307.92,-575.7C311.07,-567.81 314.88,-558.3 318.38,-549.55"/>
<polygon fill="grey" stroke="grey" stroke-width="2" points="321.69,-550.69 322.16,-540.1 315.19,-548.09 321.69,-550.69"/>
</g>
<!-- 4&#45;&gt;7 -->
<g id="edge6" class="edge">
<title>4&#45;&gt;7</title>
<path fill="none" stroke="grey" stroke-width="2" d="M298.11,-575.85C296.44,-565.5 294.4,-552.02 293,-540 284.39,-465.86 278.35,-377.99 275.62,-334.38"/>
<polygon fill="grey" stroke="grey" stroke-width="2" points="279.11,-334.05 275,-324.29 272.12,-334.48 279.11,-334.05"/>
</g>
<!-- 5 -->
<g id="node5" class="node">
<title>5</title>
<path fill="none" stroke="#d85656" stroke-width="2" d="M199.5,-540C199.5,-540 116.5,-540 116.5,-540 110.5,-540 104.5,-534 104.5,-528 104.5,-528 104.5,-516 104.5,-516 104.5,-510 110.5,-504 116.5,-504 116.5,-504 199.5,-504 199.5,-504 205.5,-504 211.5,-510 211.5,-516 211.5,-516 211.5,-528 211.5,-528 211.5,-534 205.5,-540 199.5,-540"/>
<text text-anchor="middle" x="158" y="-519.5" font-family="sans" font-size="10.00">combine_adaptors</text>
</g>
<!-- 5&#45;&gt;2 -->
<g id="edge3" class="edge">
<title>5&#45;&gt;2</title>
<path fill="none" stroke="grey" stroke-width="2" d="M158,-503.7C158,-495.98 158,-486.71 158,-478.11"/>
<polygon fill="grey" stroke="grey" stroke-width="2" points="161.5,-478.1 158,-468.1 154.5,-478.1 161.5,-478.1"/>
</g>
<!-- 7&#45;&gt;10 -->
<g id="edge12" class="edge">
<title>7&#45;&gt;10</title>
<path fill="none" stroke="grey" stroke-width="2" d="M262.63,-287.7C257.28,-279.56 250.8,-269.69 244.89,-260.7"/>
<polygon fill="grey" stroke="grey" stroke-width="2" points="247.66,-258.54 239.24,-252.1 241.81,-262.38 247.66,-258.54"/>
</g>
<!-- 8 -->
<g id="node8" class="node">
<title>8</title>
<path fill="none" stroke="#56d87b" stroke-width="2" d="M271,-108C271,-108 185,-108 185,-108 179,-108 173,-102 173,-96 173,-96 173,-84 173,-84 173,-78 179,-72 185,-72 185,-72 271,-72 271,-72 277,-72 283,-78 283,-84 283,-84 283,-96 283,-96 283,-102 277,-108 271,-108"/>
<text text-anchor="middle" x="228" y="-87.5" font-family="sans" font-size="10.00">combine_step_logs</text>
</g>
<!-- 8&#45;&gt;11 -->
<g id="edge15" class="edge">
<title>8&#45;&gt;11</title>
<path fill="none" stroke="grey" stroke-width="2" d="M201.58,-71.88C187.59,-62.81 170.22,-51.55 155.11,-41.76"/>
<polygon fill="grey" stroke="grey" stroke-width="2" points="156.82,-38.69 146.52,-36.19 153.01,-44.57 156.82,-38.69"/>
</g>
<!-- 12 -->
<g id="node12" class="node">
<title>12</title>
<path fill="none" stroke="#d8c356" stroke-width="2" d="M304,-36C304,-36 204,-36 204,-36 198,-36 192,-30 192,-24 192,-24 192,-12 192,-12 192,-6 198,0 204,0 204,0 304,0 304,0 310,0 316,-6 316,-12 316,-12 316,-24 316,-24 316,-30 310,-36 304,-36"/>
<text text-anchor="middle" x="254" y="-15.5" font-family="sans" font-size="10.00">plot_duplication_stats</text>
</g>
<!-- 8&#45;&gt;12 -->
<g id="edge16" class="edge">
<title>8&#45;&gt;12</title>
<path fill="none" stroke="grey" stroke-width="2" d="M234.43,-71.7C237.36,-63.81 240.89,-54.3 244.14,-45.55"/>
<polygon fill="grey" stroke="grey" stroke-width="2" points="247.45,-46.7 247.65,-36.1 240.88,-44.26 247.45,-46.7"/>
</g>
<!-- 9 -->
<g id="node9" class="node">
<title>9</title>
<path fill="none" stroke="#9fd856" stroke-width="2" d="M269,-180C269,-180 187,-180 187,-180 181,-180 175,-174 175,-168 175,-168 175,-156 175,-156 175,-150 181,-144 187,-144 187,-144 269,-144 269,-144 275,-144 281,-150 281,-156 281,-156 281,-168 281,-168 281,-174 275,-180 269,-180"/>
<text text-anchor="middle" x="228" y="-159.5" font-family="sans" font-size="10.00">process_step_logs</text>
</g>
<!-- 9&#45;&gt;8 -->
<g id="edge8" class="edge">
<title>9&#45;&gt;8</title>
<path fill="none" stroke="grey" stroke-width="2" d="M228,-143.7C228,-135.98 228,-126.71 228,-118.11"/>
<polygon fill="grey" stroke="grey" stroke-width="2" points="231.5,-118.1 228,-108.1 224.5,-118.1 231.5,-118.1"/>
</g>
<!-- 10&#45;&gt;9 -->
<g id="edge9" class="edge">
<title>10&#45;&gt;9</title>
<path fill="none" stroke="grey" stroke-width="2" d="M228,-215.7C228,-207.98 228,-198.71 228,-190.11"/>
<polygon fill="grey" stroke="grey" stroke-width="2" points="231.5,-190.1 228,-180.1 224.5,-190.1 231.5,-190.1"/>
</g>
</g>
</svg>
