<?xml version="1.0" encoding="UTF-8" standalone="no"?>
<!DOCTYPE svg PUBLIC "-//W3C//DTD SVG 1.1//EN"
 "http://www.w3.org/Graphics/SVG/1.1/DTD/svg11.dtd">
<!-- Generated by graphviz version 2.43.0 (0)
 -->
<!-- Title: snakemake_dag Pages: 1 -->
<svg width="419pt" height="692pt"
 viewBox="0.00 0.00 418.50 692.00" xmlns="http://www.w3.org/2000/svg" xmlns:xlink="http://www.w3.org/1999/xlink">
<g id="graph0" class="graph" transform="scale(1 1) rotate(0) translate(4 688)">
<title>snakemake_dag</title>
<polygon fill="white" stroke="transparent" points="-4,4 -4,-688 414.5,-688 414.5,4 -4,4"/>
<!-- 1 -->
<g id="node1" class="node">
<title>1</title>
<path fill="none" stroke="#56d8c1" stroke-width="2" d="M248.5,-396C248.5,-396 218.5,-396 218.5,-396 212.5,-396 206.5,-390 206.5,-384 206.5,-384 206.5,-372 206.5,-372 206.5,-366 212.5,-360 218.5,-360 218.5,-360 248.5,-360 248.5,-360 254.5,-360 260.5,-366 260.5,-372 260.5,-372 260.5,-384 260.5,-384 260.5,-390 254.5,-396 248.5,-396"/>
<text text-anchor="middle" x="233.5" y="-375.5" font-family="sans" font-size="10.00">mask</text>
</g>
<!-- 10 -->
<g id="node10" class="node">
<title>10</title>
<path fill="none" stroke="#d87556" stroke-width="2" d="M332,-324C332,-324 257,-324 257,-324 251,-324 245,-318 245,-312 245,-312 245,-300 245,-300 245,-294 251,-288 257,-288 257,-288 332,-288 332,-288 338,-288 344,-294 344,-300 344,-300 344,-312 344,-312 344,-318 338,-324 332,-324"/>
<text text-anchor="middle" x="294.5" y="-303.5" font-family="sans" font-size="10.00">count_duplicates</text>
</g>
<!-- 1&#45;&gt;10 -->
<g id="edge10" class="edge">
<title>1&#45;&gt;10</title>
<path fill="none" stroke="grey" stroke-width="2" d="M248.58,-359.7C255.89,-351.3 264.81,-341.07 272.84,-331.86"/>
<polygon fill="grey" stroke="grey" stroke-width="2" points="275.66,-333.94 279.59,-324.1 270.39,-329.34 275.66,-333.94"/>
</g>
<!-- 13 -->
<g id="node13" class="node">
<title>13</title>
<path fill="none" stroke="#d8d356" stroke-width="2" d="M268.5,-252C268.5,-252 228.5,-252 228.5,-252 222.5,-252 216.5,-246 216.5,-240 216.5,-240 216.5,-228 216.5,-228 216.5,-222 222.5,-216 228.5,-216 228.5,-216 268.5,-216 268.5,-216 274.5,-216 280.5,-222 280.5,-228 280.5,-228 280.5,-240 280.5,-240 280.5,-246 274.5,-252 268.5,-252"/>
<text text-anchor="middle" x="248.5" y="-231.5" font-family="sans" font-size="10.00">grep_logs</text>
</g>
<!-- 1&#45;&gt;13 -->
<g id="edge16" class="edge">
<title>1&#45;&gt;13</title>
<path fill="none" stroke="grey" stroke-width="2" d="M233.12,-359.86C232.95,-341.88 233.3,-312.84 236.5,-288 237.6,-279.45 239.45,-270.25 241.36,-261.95"/>
<polygon fill="grey" stroke="grey" stroke-width="2" points="244.81,-262.58 243.78,-252.04 238.01,-260.93 244.81,-262.58"/>
</g>
<!-- 2 -->
<g id="node2" class="node">
<title>2</title>
<path fill="none" stroke="#d89556" stroke-width="2" d="M199.5,-468C199.5,-468 169.5,-468 169.5,-468 163.5,-468 157.5,-462 157.5,-456 157.5,-456 157.5,-444 157.5,-444 157.5,-438 163.5,-432 169.5,-432 169.5,-432 199.5,-432 199.5,-432 205.5,-432 211.5,-438 211.5,-444 211.5,-444 211.5,-456 211.5,-456 211.5,-462 205.5,-468 199.5,-468"/>
<text text-anchor="middle" x="184.5" y="-447.5" font-family="sans" font-size="10.00">trim</text>
</g>
<!-- 2&#45;&gt;1 -->
<g id="edge1" class="edge">
<title>2&#45;&gt;1</title>
<path fill="none" stroke="grey" stroke-width="2" d="M196.61,-431.7C202.37,-423.47 209.36,-413.48 215.71,-404.42"/>
<polygon fill="grey" stroke="grey" stroke-width="2" points="218.66,-406.3 221.53,-396.1 212.92,-402.29 218.66,-406.3"/>
</g>
<!-- 8 -->
<g id="node8" class="node">
<title>8</title>
<path fill="none" stroke="#88d856" stroke-width="2" d="M100.5,-396C100.5,-396 32.5,-396 32.5,-396 26.5,-396 20.5,-390 20.5,-384 20.5,-384 20.5,-372 20.5,-372 20.5,-366 26.5,-360 32.5,-360 32.5,-360 100.5,-360 100.5,-360 106.5,-360 112.5,-366 112.5,-372 112.5,-372 112.5,-384 112.5,-384 112.5,-390 106.5,-396 100.5,-396"/>
<text text-anchor="middle" x="66.5" y="-375.5" font-family="sans" font-size="10.00">mask_unpaired</text>
</g>
<!-- 2&#45;&gt;8 -->
<g id="edge7" class="edge">
<title>2&#45;&gt;8</title>
<path fill="none" stroke="grey" stroke-width="2" d="M157.43,-432.94C141.67,-423.59 121.56,-411.66 104.26,-401.4"/>
<polygon fill="grey" stroke="grey" stroke-width="2" points="105.89,-398.3 95.51,-396.21 102.32,-404.32 105.89,-398.3"/>
</g>
<!-- 2&#45;&gt;13 -->
<g id="edge14" class="edge">
<title>2&#45;&gt;13</title>
<path fill="none" stroke="grey" stroke-width="2" d="M185.78,-431.69C187.41,-413.56 190.84,-384.41 197.5,-360 207.08,-324.87 223.82,-286.33 235.5,-261.47"/>
<polygon fill="grey" stroke="grey" stroke-width="2" points="238.71,-262.87 239.85,-252.33 232.39,-259.85 238.71,-262.87"/>
</g>
<!-- 14 -->
<g id="node14" class="node">
<title>14</title>
<path fill="none" stroke="#56b1d8" stroke-width="2" d="M182,-36C182,-36 99,-36 99,-36 93,-36 87,-30 87,-24 87,-24 87,-12 87,-12 87,-6 93,0 99,0 99,0 182,0 182,0 188,0 194,-6 194,-12 194,-12 194,-24 194,-24 194,-30 188,-36 182,-36"/>
<text text-anchor="middle" x="140.5" y="-15.5" font-family="sans" font-size="10.00">plot_adaptor_stats</text>
</g>
<!-- 2&#45;&gt;14 -->
<g id="edge17" class="edge">
<title>2&#45;&gt;14</title>
<path fill="none" stroke="grey" stroke-width="2" d="M175.38,-431.61C162.5,-405.36 140.5,-353.71 140.5,-307 140.5,-307 140.5,-307 140.5,-161 140.5,-121 140.5,-74.65 140.5,-46.08"/>
<polygon fill="grey" stroke="grey" stroke-width="2" points="144,-46.05 140.5,-36.05 137,-46.05 144,-46.05"/>
</g>
<!-- 3 -->
<g id="node3" class="node">
<title>3</title>
<path fill="none" stroke="#d8b456" stroke-width="2" d="M361.5,-540C361.5,-540 331.5,-540 331.5,-540 325.5,-540 319.5,-534 319.5,-528 319.5,-528 319.5,-516 319.5,-516 319.5,-510 325.5,-504 331.5,-504 331.5,-504 361.5,-504 361.5,-504 367.5,-504 373.5,-510 373.5,-516 373.5,-516 373.5,-528 373.5,-528 373.5,-534 367.5,-540 361.5,-540"/>
<text text-anchor="middle" x="346.5" y="-519.5" font-family="sans" font-size="10.00">repair</text>
</g>
<!-- 3&#45;&gt;2 -->
<g id="edge3" class="edge">
<title>3&#45;&gt;2</title>
<path fill="none" stroke="grey" stroke-width="2" d="M319.38,-509.28C292.4,-497.62 250.82,-479.65 220.95,-466.75"/>
<polygon fill="grey" stroke="grey" stroke-width="2" points="222.27,-463.51 211.7,-462.75 219.5,-469.93 222.27,-463.51"/>
</g>
<!-- 3&#45;&gt;13 -->
<g id="edge15" class="edge">
<title>3&#45;&gt;13</title>
<path fill="none" stroke="grey" stroke-width="2" d="M352.92,-503.87C367.07,-462.96 396.45,-357.79 353.5,-288 339.69,-265.56 313.11,-252.27 290.16,-244.61"/>
<polygon fill="grey" stroke="grey" stroke-width="2" points="291.18,-241.27 280.59,-241.67 289.12,-247.96 291.18,-241.27"/>
</g>
<!-- 4 -->
<g id="node4" class="node">
<title>4</title>
<path fill="none" stroke="#56d863" stroke-width="2" d="M309,-612C309,-612 274,-612 274,-612 268,-612 262,-606 262,-600 262,-600 262,-588 262,-588 262,-582 268,-576 274,-576 274,-576 309,-576 309,-576 315,-576 321,-582 321,-588 321,-588 321,-600 321,-600 321,-606 315,-612 309,-612"/>
<text text-anchor="middle" x="291.5" y="-591.5" font-family="sans" font-size="10.00">cutadapt</text>
</g>
<!-- 4&#45;&gt;3 -->
<g id="edge4" class="edge">
<title>4&#45;&gt;3</title>
<path fill="none" stroke="grey" stroke-width="2" d="M305.1,-575.7C311.62,-567.39 319.57,-557.28 326.75,-548.14"/>
<polygon fill="grey" stroke="grey" stroke-width="2" points="329.63,-550.13 333.06,-540.1 324.13,-545.81 329.63,-550.13"/>
</g>
<!-- 9 -->
<g id="node9" class="node">
<title>9</title>
<path fill="none" stroke="#d85656" stroke-width="2" d="M109,-540C109,-540 12,-540 12,-540 6,-540 0,-534 0,-528 0,-528 0,-516 0,-516 0,-510 6,-504 12,-504 12,-504 109,-504 109,-504 115,-504 121,-510 121,-516 121,-516 121,-528 121,-528 121,-534 115,-540 109,-540"/>
<text text-anchor="middle" x="60.5" y="-519.5" font-family="sans" font-size="10.00">parse_cutadapt_stats</text>
</g>
<!-- 4&#45;&gt;9 -->
<g id="edge8" class="edge">
<title>4&#45;&gt;9</title>
<path fill="none" stroke="grey" stroke-width="2" d="M261.77,-583.99C227.72,-573.67 170.86,-556.44 126.25,-542.93"/>
<polygon fill="grey" stroke="grey" stroke-width="2" points="127.23,-539.56 116.64,-540.01 125.2,-546.26 127.23,-539.56"/>
</g>
<!-- 4&#45;&gt;10 -->
<g id="edge9" class="edge">
<title>4&#45;&gt;10</title>
<path fill="none" stroke="grey" stroke-width="2" d="M291.68,-575.97C292.18,-528.29 293.6,-393.18 294.21,-334.63"/>
<polygon fill="grey" stroke="grey" stroke-width="2" points="297.71,-334.34 294.32,-324.31 290.71,-334.27 297.71,-334.34"/>
</g>
<!-- 5 -->
<g id="node5" class="node">
<title>5</title>
<path fill="none" stroke="#5692d8" stroke-width="2" d="M274,-684C274,-684 177,-684 177,-684 171,-684 165,-678 165,-672 165,-672 165,-660 165,-660 165,-654 171,-648 177,-648 177,-648 274,-648 274,-648 280,-648 286,-654 286,-660 286,-660 286,-672 286,-672 286,-678 280,-684 274,-684"/>
<text text-anchor="middle" x="225.5" y="-663.5" font-family="sans" font-size="10.00">check_pool_barcodes</text>
</g>
<!-- 5&#45;&gt;4 -->
<g id="edge5" class="edge">
<title>5&#45;&gt;4</title>
<path fill="none" stroke="grey" stroke-width="2" d="M241.81,-647.7C249.81,-639.22 259.57,-628.86 268.32,-619.58"/>
<polygon fill="grey" stroke="grey" stroke-width="2" points="271.06,-621.78 275.37,-612.1 265.97,-616.98 271.06,-621.78"/>
</g>
<!-- 6 -->
<g id="node6" class="node">
<title>6</title>
<path fill="none" stroke="#56d882" stroke-width="2" d="M398.5,-684C398.5,-684 316.5,-684 316.5,-684 310.5,-684 304.5,-678 304.5,-672 304.5,-672 304.5,-660 304.5,-660 304.5,-654 310.5,-648 316.5,-648 316.5,-648 398.5,-648 398.5,-648 404.5,-648 410.5,-654 410.5,-660 410.5,-660 410.5,-672 410.5,-672 410.5,-678 404.5,-684 398.5,-684"/>
<text text-anchor="middle" x="357.5" y="-663.5" font-family="sans" font-size="10.00">write_barcode_file</text>
</g>
<!-- 6&#45;&gt;4 -->
<g id="edge6" class="edge">
<title>6&#45;&gt;4</title>
<path fill="none" stroke="grey" stroke-width="2" d="M341.19,-647.7C333.19,-639.22 323.43,-628.86 314.68,-619.58"/>
<polygon fill="grey" stroke="grey" stroke-width="2" points="317.03,-616.98 307.63,-612.1 311.94,-621.78 317.03,-616.98"/>
</g>
<!-- 7 -->
<g id="node7" class="node">
<title>7</title>
<path fill="none" stroke="#56d0d8" stroke-width="2" d="M234,-540C234,-540 151,-540 151,-540 145,-540 139,-534 139,-528 139,-528 139,-516 139,-516 139,-510 145,-504 151,-504 151,-504 234,-504 234,-504 240,-504 246,-510 246,-516 246,-516 246,-528 246,-528 246,-534 240,-540 234,-540"/>
<text text-anchor="middle" x="192.5" y="-519.5" font-family="sans" font-size="10.00">combine_adaptors</text>
</g>
<!-- 7&#45;&gt;2 -->
<g id="edge2" class="edge">
<title>7&#45;&gt;2</title>
<path fill="none" stroke="grey" stroke-width="2" d="M190.52,-503.7C189.64,-495.98 188.58,-486.71 187.6,-478.11"/>
<polygon fill="grey" stroke="grey" stroke-width="2" points="191.07,-477.64 186.45,-468.1 184.11,-478.44 191.07,-477.64"/>
</g>
<!-- 10&#45;&gt;13 -->
<g id="edge13" class="edge">
<title>10&#45;&gt;13</title>
<path fill="none" stroke="grey" stroke-width="2" d="M283.13,-287.7C277.78,-279.56 271.3,-269.69 265.39,-260.7"/>
<polygon fill="grey" stroke="grey" stroke-width="2" points="268.16,-258.54 259.74,-252.1 262.31,-262.38 268.16,-258.54"/>
</g>
<!-- 11 -->
<g id="node11" class="node">
<title>11</title>
<path fill="none" stroke="#9fd856" stroke-width="2" d="M291.5,-108C291.5,-108 205.5,-108 205.5,-108 199.5,-108 193.5,-102 193.5,-96 193.5,-96 193.5,-84 193.5,-84 193.5,-78 199.5,-72 205.5,-72 205.5,-72 291.5,-72 291.5,-72 297.5,-72 303.5,-78 303.5,-84 303.5,-84 303.5,-96 303.5,-96 303.5,-102 297.5,-108 291.5,-108"/>
<text text-anchor="middle" x="248.5" y="-87.5" font-family="sans" font-size="10.00">combine_step_logs</text>
</g>
<!-- 11&#45;&gt;14 -->
<g id="edge18" class="edge">
<title>11&#45;&gt;14</title>
<path fill="none" stroke="grey" stroke-width="2" d="M222.08,-71.88C208.09,-62.81 190.72,-51.55 175.61,-41.76"/>
<polygon fill="grey" stroke="grey" stroke-width="2" points="177.32,-38.69 167.02,-36.19 173.51,-44.57 177.32,-38.69"/>
</g>
<!-- 15 -->
<g id="node15" class="node">
<title>15</title>
<path fill="none" stroke="#bed856" stroke-width="2" d="M324.5,-36C324.5,-36 224.5,-36 224.5,-36 218.5,-36 212.5,-30 212.5,-24 212.5,-24 212.5,-12 212.5,-12 212.5,-6 218.5,0 224.5,0 224.5,0 324.5,0 324.5,0 330.5,0 336.5,-6 336.5,-12 336.5,-12 336.5,-24 336.5,-24 336.5,-30 330.5,-36 324.5,-36"/>
<text text-anchor="middle" x="274.5" y="-15.5" font-family="sans" font-size="10.00">plot_duplication_stats</text>
</g>
<!-- 11&#45;&gt;15 -->
<g id="edge19" class="edge">
<title>11&#45;&gt;15</title>
<path fill="none" stroke="grey" stroke-width="2" d="M254.93,-71.7C257.86,-63.81 261.39,-54.3 264.64,-45.55"/>
<polygon fill="grey" stroke="grey" stroke-width="2" points="267.95,-46.7 268.15,-36.1 261.38,-44.26 267.95,-46.7"/>
</g>
<!-- 12 -->
<g id="node12" class="node">
<title>12</title>
<path fill="none" stroke="#56d8a2" stroke-width="2" d="M289.5,-180C289.5,-180 207.5,-180 207.5,-180 201.5,-180 195.5,-174 195.5,-168 195.5,-168 195.5,-156 195.5,-156 195.5,-150 201.5,-144 207.5,-144 207.5,-144 289.5,-144 289.5,-144 295.5,-144 301.5,-150 301.5,-156 301.5,-156 301.5,-168 301.5,-168 301.5,-174 295.5,-180 289.5,-180"/>
<text text-anchor="middle" x="248.5" y="-159.5" font-family="sans" font-size="10.00">process_step_logs</text>
</g>
<!-- 12&#45;&gt;11 -->
<g id="edge11" class="edge">
<title>12&#45;&gt;11</title>
<path fill="none" stroke="grey" stroke-width="2" d="M248.5,-143.7C248.5,-135.98 248.5,-126.71 248.5,-118.11"/>
<polygon fill="grey" stroke="grey" stroke-width="2" points="252,-118.1 248.5,-108.1 245,-118.1 252,-118.1"/>
</g>
<!-- 13&#45;&gt;12 -->
<g id="edge12" class="edge">
<title>13&#45;&gt;12</title>
<path fill="none" stroke="grey" stroke-width="2" d="M248.5,-215.7C248.5,-207.98 248.5,-198.71 248.5,-190.11"/>
<polygon fill="grey" stroke="grey" stroke-width="2" points="252,-190.1 248.5,-180.1 245,-190.1 252,-190.1"/>
</g>
</g>
</svg>
