<?xml version="1.0" encoding="UTF-8" standalone="no"?>
<!DOCTYPE svg PUBLIC "-//W3C//DTD SVG 1.1//EN"
 "http://www.w3.org/Graphics/SVG/1.1/DTD/svg11.dtd">
<!-- Generated by graphviz version 2.43.0 (0)
 -->
<!-- Title: snakemake_dag Pages: 1 -->
<svg width="294pt" height="332pt"
 viewBox="0.00 0.00 293.50 332.00" xmlns="http://www.w3.org/2000/svg" xmlns:xlink="http://www.w3.org/1999/xlink">
<g id="graph0" class="graph" transform="scale(1 1) rotate(0) translate(4 328)">
<title>snakemake_dag</title>
<polygon fill="white" stroke="transparent" points="-4,4 -4,-328 289.5,-328 289.5,4 -4,4"/>
<!-- 1 -->
<g id="node1" class="node">
<title>1</title>
<path fill="none" stroke="#d88d56" stroke-width="2" d="M152,-36C152,-36 122,-36 122,-36 116,-36 110,-30 110,-24 110,-24 110,-12 110,-12 110,-6 116,0 122,0 122,0 152,0 152,0 158,0 164,-6 164,-12 164,-12 164,-24 164,-24 164,-30 158,-36 152,-36"/>
<text text-anchor="middle" x="137" y="-15.5" font-family="sans" font-size="10.00">mask</text>
</g>
<!-- 2 -->
<g id="node2" class="node">
<title>2</title>
<path fill="none" stroke="#56d8a2" stroke-width="2" d="M197,-108C197,-108 167,-108 167,-108 161,-108 155,-102 155,-96 155,-96 155,-84 155,-84 155,-78 161,-72 167,-72 167,-72 197,-72 197,-72 203,-72 209,-78 209,-84 209,-84 209,-96 209,-96 209,-102 203,-108 197,-108"/>
<text text-anchor="middle" x="182" y="-87.5" font-family="sans" font-size="10.00">trim</text>
</g>
<!-- 2&#45;&gt;1 -->
<g id="edge1" class="edge">
<title>2&#45;&gt;1</title>
<path fill="none" stroke="grey" stroke-width="2" d="M170.88,-71.7C165.64,-63.56 159.3,-53.69 153.52,-44.7"/>
<polygon fill="grey" stroke="grey" stroke-width="2" points="156.35,-42.62 148,-36.1 150.46,-46.41 156.35,-42.62"/>
</g>
<!-- 10 -->
<g id="node10" class="node">
<title>10</title>
<path fill="none" stroke="#a7d856" stroke-width="2" d="M262,-36C262,-36 194,-36 194,-36 188,-36 182,-30 182,-24 182,-24 182,-12 182,-12 182,-6 188,0 194,0 194,0 262,0 262,0 268,0 274,-6 274,-12 274,-12 274,-24 274,-24 274,-30 268,-36 262,-36"/>
<text text-anchor="middle" x="228" y="-15.5" font-family="sans" font-size="10.00">mask_unpaired</text>
</g>
<!-- 2&#45;&gt;10 -->
<g id="edge10" class="edge">
<title>2&#45;&gt;10</title>
<path fill="none" stroke="grey" stroke-width="2" d="M193.37,-71.7C198.72,-63.56 205.2,-53.69 211.11,-44.7"/>
<polygon fill="grey" stroke="grey" stroke-width="2" points="214.19,-46.38 216.76,-36.1 208.34,-42.54 214.19,-46.38"/>
</g>
<!-- 3 -->
<g id="node3" class="node">
<title>3</title>
<path fill="none" stroke="#d85656" stroke-width="2" d="M148,-180C148,-180 118,-180 118,-180 112,-180 106,-174 106,-168 106,-168 106,-156 106,-156 106,-150 112,-144 118,-144 118,-144 148,-144 148,-144 154,-144 160,-150 160,-156 160,-156 160,-168 160,-168 160,-174 154,-180 148,-180"/>
<text text-anchor="middle" x="133" y="-159.5" font-family="sans" font-size="10.00">repair</text>
</g>
<!-- 3&#45;&gt;2 -->
<g id="edge3" class="edge">
<title>3&#45;&gt;2</title>
<path fill="none" stroke="grey" stroke-width="2" d="M145.11,-143.7C150.87,-135.47 157.86,-125.48 164.21,-116.42"/>
<polygon fill="grey" stroke="grey" stroke-width="2" points="167.16,-118.3 170.03,-108.1 161.42,-114.29 167.16,-118.3"/>
</g>
<!-- 4 -->
<g id="node4" class="node">
<title>4</title>
<path fill="none" stroke="#56d88a" stroke-width="2" d="M112,-252C112,-252 82,-252 82,-252 76,-252 70,-246 70,-240 70,-240 70,-228 70,-228 70,-222 76,-216 82,-216 82,-216 112,-216 112,-216 118,-216 124,-222 124,-228 124,-228 124,-240 124,-240 124,-246 118,-252 112,-252"/>
<text text-anchor="middle" x="97" y="-231.5" font-family="sans" font-size="10.00">11</text>
</g>
<!-- 4&#45;&gt;3 -->
<g id="edge4" class="edge">
<title>4&#45;&gt;3</title>
<path fill="none" stroke="grey" stroke-width="2" d="M105.9,-215.7C110,-207.73 114.95,-198.1 119.49,-189.26"/>
<polygon fill="grey" stroke="grey" stroke-width="2" points="122.74,-190.6 124.2,-180.1 116.52,-187.4 122.74,-190.6"/>
</g>
<!-- 5 -->
<g id="node5" class="node">
<title>5</title>
<path fill="none" stroke="#88d856" stroke-width="2" d="M181.5,-324C181.5,-324 84.5,-324 84.5,-324 78.5,-324 72.5,-318 72.5,-312 72.5,-312 72.5,-300 72.5,-300 72.5,-294 78.5,-288 84.5,-288 84.5,-288 181.5,-288 181.5,-288 187.5,-288 193.5,-294 193.5,-300 193.5,-300 193.5,-312 193.5,-312 193.5,-318 187.5,-324 181.5,-324"/>
<text text-anchor="middle" x="133" y="-303.5" font-family="sans" font-size="10.00">check_pool_barcodes</text>
</g>
<!-- 5&#45;&gt;4 -->
<g id="edge6" class="edge">
<title>5&#45;&gt;4</title>
<path fill="none" stroke="grey" stroke-width="2" d="M124.1,-287.7C120,-279.73 115.05,-270.1 110.51,-261.26"/>
<polygon fill="grey" stroke="grey" stroke-width="2" points="113.48,-259.4 105.8,-252.1 107.26,-262.6 113.48,-259.4"/>
</g>
<!-- 8 -->
<g id="node8" class="node">
<title>8</title>
<path fill="none" stroke="#d8a456" stroke-width="2" d="M184,-252C184,-252 154,-252 154,-252 148,-252 142,-246 142,-240 142,-240 142,-228 142,-228 142,-222 148,-216 154,-216 154,-216 184,-216 184,-216 190,-216 196,-222 196,-228 196,-228 196,-240 196,-240 196,-246 190,-252 184,-252"/>
<text text-anchor="middle" x="169" y="-231.5" font-family="sans" font-size="10.00">15</text>
</g>
<!-- 5&#45;&gt;8 -->
<g id="edge8" class="edge">
<title>5&#45;&gt;8</title>
<path fill="none" stroke="grey" stroke-width="2" d="M141.9,-287.7C146,-279.73 150.95,-270.1 155.49,-261.26"/>
<polygon fill="grey" stroke="grey" stroke-width="2" points="158.74,-262.6 160.2,-252.1 152.52,-259.4 158.74,-262.6"/>
</g>
<!-- 6 -->
<g id="node6" class="node">
<title>6</title>
<path fill="none" stroke="#56a2d8" stroke-width="2" d="M42,-324C42,-324 12,-324 12,-324 6,-324 0,-318 0,-312 0,-312 0,-300 0,-300 0,-294 6,-288 12,-288 12,-288 42,-288 42,-288 48,-288 54,-294 54,-300 54,-300 54,-312 54,-312 54,-318 48,-324 42,-324"/>
<text text-anchor="middle" x="27" y="-303.5" font-family="sans" font-size="10.00">12</text>
</g>
<!-- 6&#45;&gt;4 -->
<g id="edge7" class="edge">
<title>6&#45;&gt;4</title>
<path fill="none" stroke="grey" stroke-width="2" d="M44.3,-287.7C52.86,-279.14 63.34,-268.66 72.7,-259.3"/>
<polygon fill="grey" stroke="grey" stroke-width="2" points="75.3,-261.65 79.9,-252.1 70.35,-256.7 75.3,-261.65"/>
</g>
<!-- 7 -->
<g id="node7" class="node">
<title>7</title>
<path fill="none" stroke="#d8bc56" stroke-width="2" d="M273.5,-180C273.5,-180 190.5,-180 190.5,-180 184.5,-180 178.5,-174 178.5,-168 178.5,-168 178.5,-156 178.5,-156 178.5,-150 184.5,-144 190.5,-144 190.5,-144 273.5,-144 273.5,-144 279.5,-144 285.5,-150 285.5,-156 285.5,-156 285.5,-168 285.5,-168 285.5,-174 279.5,-180 273.5,-180"/>
<text text-anchor="middle" x="232" y="-159.5" font-family="sans" font-size="10.00">combine_adaptors</text>
</g>
<!-- 7&#45;&gt;2 -->
<g id="edge2" class="edge">
<title>7&#45;&gt;2</title>
<path fill="none" stroke="grey" stroke-width="2" d="M219.64,-143.7C213.77,-135.47 206.63,-125.48 200.16,-116.42"/>
<polygon fill="grey" stroke="grey" stroke-width="2" points="202.88,-114.21 194.22,-108.1 197.18,-118.28 202.88,-114.21"/>
</g>
<!-- 8&#45;&gt;3 -->
<g id="edge5" class="edge">
<title>8&#45;&gt;3</title>
<path fill="none" stroke="grey" stroke-width="2" d="M160.1,-215.7C156,-207.73 151.05,-198.1 146.51,-189.26"/>
<polygon fill="grey" stroke="grey" stroke-width="2" points="149.48,-187.4 141.8,-180.1 143.26,-190.6 149.48,-187.4"/>
</g>
<!-- 9 -->
<g id="node9" class="node">
<title>9</title>
<path fill="none" stroke="#d86e56" stroke-width="2" d="M254,-324C254,-324 224,-324 224,-324 218,-324 212,-318 212,-312 212,-312 212,-300 212,-300 212,-294 218,-288 224,-288 224,-288 254,-288 254,-288 260,-288 266,-294 266,-300 266,-300 266,-312 266,-312 266,-318 260,-324 254,-324"/>
<text text-anchor="middle" x="239" y="-303.5" font-family="sans" font-size="10.00">16</text>
</g>
<!-- 9&#45;&gt;8 -->
<g id="edge9" class="edge">
<title>9&#45;&gt;8</title>
<path fill="none" stroke="grey" stroke-width="2" d="M221.7,-287.7C213.14,-279.14 202.66,-268.66 193.3,-259.3"/>
<polygon fill="grey" stroke="grey" stroke-width="2" points="195.65,-256.7 186.1,-252.1 190.7,-261.65 195.65,-256.7"/>
</g>
</g>
</svg>
